<svg xmlns="http://www.w3.org/2000/svg" width="1760" height="420" viewBox="0 0 1760 420">
<defs>
<marker id="arrow" viewBox="0 0 10 10" refX="8" refY="5" markerWidth="7" markerHeight="7" orient="auto-start-reverse">
<path d="M 0 0 L 10 5 L 0 10 z" fill="#536170" />
</marker>
</defs>
<style>
.bg{fill:#f8fafc}.node{fill:#eef2ff;stroke:#6875f5;stroke-width:1.4}.terminal{fill:#ecfeff;stroke:#0891b2}.router{fill:#fff7ed;stroke:#ea580c}.edge{fill:none;stroke:#536170;stroke-width:1.8;stroke-linecap:round;stroke-linejoin:round}.dashed{stroke:#748294;stroke-dasharray:7 6}.label{font:600 14px Arial,sans-serif;fill:#111827;text-anchor:middle;dominant-baseline:middle}.hint{font:12px Arial,sans-serif;fill:#64748b;text-anchor:middle}
</style>
<rect class="bg" width="1760" height="420" rx="18"/>
<text x="880" y="28" class="hint">Solid lines are normal flow. Dashed lines are conditional router branches / fan-out.</text>
<line x1="120" y1="80" x2="150" y2="80" class="edge" marker-end="url(#arrow)" />
<line x1="270" y1="80" x2="300" y2="80" class="edge" marker-end="url(#arrow)" />
<line x1="420" y1="80" x2="460" y2="80" class="edge" marker-end="url(#arrow)" />
<line x1="580" y1="80" x2="610" y2="80" class="edge" marker-end="url(#arrow)" />
<line x1="730" y1="80" x2="760" y2="80" class="edge" marker-end="url(#arrow)" />
<line x1="1030" y1="80" x2="1070" y2="80" class="edge" marker-end="url(#arrow)" />
<line x1="1190" y1="80" x2="1220" y2="80" class="edge" marker-end="url(#arrow)" />
<line x1="1340" y1="80" x2="1370" y2="80" class="edge" marker-end="url(#arrow)" />
<line x1="1250" y1="230" x2="1370" y2="80" class="edge" marker-end="url(#arrow)" />
<line x1="1410" y1="230" x2="1370" y2="80" class="edge" marker-end="url(#arrow)" />
<line x1="1570" y1="230" x2="1370" y2="80" class="edge" marker-end="url(#arrow)" />
<line x1="880" y1="80" x2="910" y2="80" class="edge dashed" marker-end="url(#arrow)" stroke-dasharray="7 6" />
<line x1="880" y1="80" x2="1070" y2="80" class="edge dashed" marker-end="url(#arrow)" stroke-dasharray="7 6" />
<path d="M 1430 108 C 1430 350, 520 350, 520 110" class="edge dashed" marker-end="url(#arrow)" />
<path d="M 1430 108 C 1430 350, 670 350, 670 110" class="edge dashed" marker-end="url(#arrow)" />
<path d="M 1430 108 C 1430 350, 820 350, 820 110" class="edge dashed" marker-end="url(#arrow)" />
<path d="M 1430 108 C 1430 350, 1280 350, 1280 110" class="edge dashed" marker-end="url(#arrow)" />
<line x1="1490" y1="80" x2="1130" y2="230" class="edge dashed" marker-end="url(#arrow)" stroke-dasharray="7 6" />
<line x1="1490" y1="80" x2="1290" y2="230" class="edge dashed" marker-end="url(#arrow)" stroke-dasharray="7 6" />
<line x1="1490" y1="80" x2="1450" y2="230" class="edge dashed" marker-end="url(#arrow)" stroke-dasharray="7 6" />
<line x1="1490" y1="80" x2="1610" y2="80" class="edge dashed" marker-end="url(#arrow)" stroke-dasharray="7 6" />
<rect x="-2" y="54" width="124" height="52" rx="10" class="terminal"/>
<text x="60" y="80" class="label">START</text>
<rect x="148" y="54" width="124" height="52" rx="10" class="node"/>
<text x="210" y="80" class="label">Coordinator</text>
<rect x="298" y="54" width="124" height="52" rx="10" class="node"/>
<text x="360" y="80" class="label">Image Search</text>
<rect x="458" y="54" width="124" height="52" rx="10" class="node"/>
<text x="520" y="80" class="label">Research</text>
<rect x="608" y="54" width="124" height="52" rx="10" class="node"/>
<text x="670" y="80" class="label">Outline</text>
<rect x="758" y="54" width="124" height="52" rx="10" class="node"/>
<text x="820" y="80" class="label">Writer Plan</text>
<rect x="908" y="54" width="124" height="52" rx="10" class="node"/>
<text x="970" y="80" class="label">Section Writers</text>
<rect x="1068" y="54" width="124" height="52" rx="10" class="node"/>
<text x="1130" y="80" class="label">Join Draft</text>
<rect x="1218" y="54" width="124" height="52" rx="10" class="node"/>
<text x="1280" y="80" class="label">Editor</text>
<rect x="1368" y="54" width="124" height="52" rx="10" class="router"/>
<text x="1430" y="80" class="label">Router</text>
<rect x="1128" y="204" width="124" height="52" rx="10" class="node"/>
<text x="1190" y="230" class="label">Fact Check</text>
<rect x="1288" y="204" width="124" height="52" rx="10" class="node"/>
<text x="1350" y="230" class="label">SEO</text>
<rect x="1448" y="204" width="124" height="52" rx="10" class="node"/>
<text x="1510" y="230" class="label">QA</text>
<rect x="1608" y="54" width="124" height="52" rx="10" class="terminal"/>
<text x="1670" y="80" class="label">END</text>
</svg>